<svg xmlns="http://www.w3.org/2000/svg" width="256" height="256"><path fill="#1976D2" fill-opacity=".118" fill-rule="evenodd" d="M0 128.004v128.004l128.25-.254 128.25-.254.254-127.75L257.008 0H0zm.485.496c0 70.4.119 99.053.265 63.672s.146-92.98 0-128S.485 58.1.485 128.5"/><path fill="#1976D2" fill-opacity=".369" fill-rule="evenodd" d="M106 50.494 86.5 61.868v46.264l19.763 11.444 19.762 11.443 19.738-11.408 19.737-11.408V61.785l-19-11.009c-10.45-6.054-19.45-11.154-20-11.332s-9.775 4.794-20.5 11.05m9 14.92-10.5 6.216v26.807l10.821 6.163 10.821 6.163 10.679-6.201 10.679-6.201V71.639l-10.883-6.319c-5.985-3.476-10.935-6.275-11-6.221s-4.842 2.896-10.617 6.315m-54.268 63.263-19.768 11.507.268 23.106.268 23.106 19.697 11.368 19.698 11.368 19.802-11.457 19.803-11.457.268-22.987.268-22.987-19.721-11.372c-10.846-6.255-19.967-11.446-20.268-11.537-.301-.09-9.443 5.013-20.315 11.342m90.513.624L131.99 140.5l.255 23.377.255 23.377 19.497 11.27 19.497 11.271 4.003-2.345c2.202-1.289 10.978-6.37 19.503-11.29l15.5-8.946.256-23.357.256-23.357-19.148-11c-10.531-6.05-19.646-11.09-20.256-11.199s-9.773 4.841-20.363 11M69.25 144.033 59 150.045l.036 13.228.037 13.227 10.937 6.23 10.938 6.229 10.776-6.294 10.776-6.294.278-13.077.279-13.077-10.451-6.109c-5.748-3.359-11.048-6.104-11.778-6.098-.731.005-5.94 2.716-11.578 6.023"/><path fill="#1976D2" fill-opacity=".211" fill-rule="evenodd" d="M106.8 50.385c-9.735 5.658-18.397 10.866-19.25 11.573-1.313 1.09-1.55 4.608-1.55 23.009 0 19.455.183 21.878 1.75 23.212C90.375 110.412 124.706 130 125.995 130c.614 0 9.866-5.045 20.561-11.21L166 107.58V62.42l-19.444-11.21c-10.695-6.165-20.032-11.188-20.75-11.161-.719.028-9.271 4.679-19.006 10.336m7.45 15.244L103 72.208v25.593l11.518 6.688 11.519 6.689 11.481-6.667L149 97.843V72.157l-11.328-6.579c-6.231-3.618-11.518-6.567-11.75-6.553-.232.013-5.484 2.985-11.672 6.604m-54.018 63.677-19.268 11.191.268 22.789.268 22.79 19.675 11.35 19.674 11.349 19.326-11.147 19.325-11.147v-46.687l-18.859-10.897c-10.373-5.993-19.373-10.871-20-10.839-.628.031-9.812 5.093-20.409 11.248m91.711.073L132.5 140.61l-.268 22.993-.268 22.992 19.406 11.203C162.043 203.959 171.102 209 171.5 209s9.457-5.041 20.13-11.202l19.406-11.203-.268-22.953-.268-22.954-17-9.878c-9.35-5.433-18.15-10.505-19.557-11.27-2.435-1.325-3.476-.86-22 9.839m-82.721 14.274-11.279 6.549.279 13.125.278 13.126 11.226 6.372 11.226 6.372 11.274-6.475 11.274-6.475.278-12.964.278-12.965-11.539-6.659c-6.346-3.662-11.646-6.636-11.778-6.607s-5.314 2.999-11.517 6.601"/><path fill="#1976D2" fill-opacity=".598" fill-rule="evenodd" d="M106.25 51.095 87 62.18v45.596l19.525 11.213 19.524 11.212 19.226-11.048 19.225-11.049.268-22.946.268-22.946-18.392-10.589c-10.116-5.824-19.011-10.819-19.768-11.101-.757-.281-10.038 4.477-20.626 10.573m7.503 14.253L103.007 71.5l.246 13.483.247 13.483 10.5 6.188c5.775 3.403 11.058 6.223 11.74 6.267.683.043 6.179-2.733 12.214-6.171l10.973-6.25.005-13.5.005-13.5-10.926-6.25c-6.009-3.437-11.508-6.206-12.218-6.152s-6.129 2.866-12.04 6.25m-52.521 63.824-19.268 11.127.268 22.954.268 22.954 18.927 10.936c11.629 6.719 19.533 10.703 20.5 10.333.865-.331 9.786-5.342 19.823-11.136L120 185.806v-45.345l-19.453-11.23c-10.699-6.177-19.586-11.221-19.75-11.208-.163.012-8.968 5.029-19.565 11.149m90.018.965L132 141.229l.026 22.636.026 22.635 13.196 7.5c7.257 4.125 16.163 9.176 19.791 11.225l6.596 3.725 19.432-11.234 19.433-11.234.268-22.583.269-22.584-19.396-11.157c-10.667-6.137-19.788-11.148-20.268-11.136s-9.535 5.014-20.123 11.115M69 143.392l-10.5 6.233-.263 13.437-.264 13.438 10.854 6.25c5.969 3.438 11.395 6.25 12.056 6.25s6.128-2.812 12.15-6.25l10.947-6.25-.24-13.47-.24-13.47-11-6.273c-6.05-3.45-11.45-6.24-12-6.2-.55.039-5.725 2.877-11.5 6.305"/></svg>