<svg fill="none" viewBox="0 0 636 86" xmlns="http://www.w3.org/2000/svg">
<symbol id="default">
<g clip-path="url(#clip0_56_2)">
<path d="M0 51.259V74.4191L20.0616 86L40.1223 74.4191V51.259L20.0616 39.678L0 51.259ZM31.5711 69.4829L20.0616 76.1268L8.55117 69.4829V56.1951L20.0616 49.5503L31.5711 56.1951V69.4829Z"/>
<path d="M63.0346 11.58L42.973 0L22.9114 11.5809V34.7419L42.973 46.3229L63.0346 34.7419V11.58ZM54.4834 29.8049L42.973 36.4497L31.4635 29.8049V16.5171L42.973 9.87225L54.4834 16.5171V29.8049Z"/>
<path d="M65.8853 39.678L45.8228 51.259V74.4191L65.8843 86L85.9459 74.4191V51.259L65.8853 39.678Z"/>
<path d="M137.341 51.8939C136.026 51.8939 135.052 51.8696 134.419 51.8209L131.279 62.4088C130.111 62.7009 128.48 62.8469 126.386 62.8469C124.049 62.8469 122.15 62.5792 120.689 62.0437L120.324 61.4595L136.391 12.4633C138.29 12.1712 140.505 12.0251 143.037 12.0251C145.91 12.0251 148.198 12.1955 149.902 12.5363L165.677 61.6056C163.973 62.5305 162.05 62.993 159.907 62.993C157.376 62.993 155.599 62.5548 154.576 61.6786C153.554 60.8024 152.677 59.1229 151.947 56.6402L150.559 51.8209C149.926 51.8696 148.977 51.8939 147.711 51.8939H137.341ZM137.122 42.6935L140.043 42.6204H145.374C145.618 42.6204 146.044 42.6326 146.652 42.6569C147.261 42.6813 147.711 42.6935 148.003 42.6935L146.762 38.1662C145.593 34.0771 144.254 29.0631 142.745 23.1241H142.307C141.917 25.2174 140.749 29.8663 138.801 37.0709L137.122 42.6935ZM171.958 62.3358V12.4633C173.467 12.1712 175.414 12.0251 177.8 12.0251C180.186 12.0251 182.158 12.1712 183.716 12.4633V62.3358C182.158 62.6279 180.186 62.7739 177.8 62.7739C175.414 62.7739 173.467 62.6279 171.958 62.3358ZM240.826 57.0783C240.583 58.1006 240.12 59.1959 239.439 60.3642C238.757 61.5326 238.051 62.3845 237.321 62.9199C233.913 62.8226 231.284 61.5326 229.433 59.0499C226.269 61.9707 222.836 63.4311 219.136 63.4311C217.237 63.4311 215.582 63.1268 214.17 62.5183C212.758 61.9098 211.565 61.0944 210.591 60.0722C209.618 59.0499 208.887 57.8694 208.4 56.5307C207.913 55.192 207.67 53.7925 207.67 52.3321C207.67 50.2388 208.047 48.4012 208.802 46.8191C209.557 45.237 210.591 43.9226 211.906 42.876C213.22 41.8294 214.754 41.0383 216.507 40.5029C218.26 39.9674 220.134 39.6996 222.13 39.6996C223.25 39.6996 224.236 39.7118 225.088 39.7362C225.94 39.7605 226.683 39.797 227.316 39.8457V38.4583C227.316 35.3915 225.733 33.8581 222.568 33.8581C220.524 33.8581 216.945 34.6369 211.833 36.1947C210.372 34.4909 209.447 31.8378 209.058 28.2355C210.226 27.7974 211.529 27.3836 212.965 26.9942C214.401 26.6048 215.874 26.264 217.383 25.9719C218.893 25.6798 220.378 25.4486 221.838 25.2782C223.299 25.1078 224.613 25.0227 225.782 25.0227C227.486 25.0227 229.129 25.2661 230.711 25.7529C232.294 26.2397 233.681 26.982 234.874 27.98C236.067 28.9779 237.017 30.2679 237.723 31.85C238.428 33.4321 238.781 35.3184 238.781 37.509V52.3321C238.781 54.5713 239.463 56.1534 240.826 57.0783ZM218.771 51.6019C218.771 53.8898 220.085 55.0338 222.715 55.0338C224.078 55.0338 225.611 54.3279 227.316 52.9162V47.0746C226.342 47.026 225.526 46.9895 224.869 46.9651C224.212 46.9408 223.713 46.9286 223.372 46.9286C220.304 46.9286 218.771 48.4864 218.771 51.6019ZM244.405 59.8531C244.454 58.5874 244.782 57.2001 245.391 55.691C245.999 54.1819 246.718 52.9892 247.545 52.113C251.44 54.1576 254.824 55.1798 257.697 55.1798C259.06 55.1798 260.107 54.9486 260.837 54.4861C261.567 54.0237 261.932 53.403 261.932 52.6241C261.932 51.1637 260.813 50.0685 258.573 49.3383L254.556 47.8048C248.47 45.5656 245.427 41.9146 245.427 36.8519C245.427 33.1522 246.705 30.2192 249.261 28.053C251.818 25.8867 255.262 24.8036 259.595 24.8036C261.738 24.8036 264.099 25.1078 266.679 25.7163C269.26 26.3248 271.378 27.0429 273.033 27.8704C273.131 29.2335 272.863 30.7304 272.23 32.3611C271.597 33.9919 270.818 35.1481 269.893 35.8296C265.803 33.9798 262.395 33.0548 259.668 33.0548C258.695 33.0548 257.952 33.2739 257.441 33.712C256.93 34.1501 256.674 34.71 256.674 35.3915C256.674 36.5598 257.599 37.4847 259.449 38.1662L263.977 39.7727C270.453 42.0606 273.691 45.9793 273.691 51.5288C273.691 55.1798 272.352 58.0763 269.674 60.2182C266.996 62.3601 263.174 63.4311 258.208 63.4311C253.242 63.4311 248.641 62.2384 244.405 59.8531ZM301.077 57.5165L292.46 13.1204C294.797 12.2442 296.866 11.8061 298.667 11.8061C300.712 11.8061 302.197 12.2564 303.122 13.1569C304.047 14.0575 304.705 15.7491 305.094 18.2318L308.161 37.0709C309.086 42.7178 309.671 46.6609 309.914 48.9001C310.158 51.1394 310.316 52.3077 310.389 52.4051C310.462 52.5024 310.62 52.5511 310.864 52.5511L316.925 13.4125C318.727 13.0717 321.234 12.9014 324.447 12.9014C327.661 12.9014 330.144 13.0717 331.897 13.4125L337.447 51.6019C337.496 52.04 337.581 52.3077 337.703 52.4051C337.824 52.5024 338.007 52.5511 338.25 52.5511C338.689 47.9752 339.419 42.7908 340.441 36.9979L344.531 12.4633C345.943 12.1712 347.574 12.0251 349.424 12.0251C351.664 12.0251 353.636 12.2929 355.34 12.8283L355.851 13.4855L346.211 62.2628C343.046 62.6035 340.076 62.7739 337.301 62.7739C334.526 62.7739 332.554 62.4331 331.385 61.7516C330.217 61.0701 329.462 59.6584 329.121 57.5165L326.638 41.6712C325.762 35.9269 325.056 30.2801 324.52 24.7306H324.009C323.474 29.4525 322.67 35.0994 321.599 41.6712L318.313 62.2628C315.002 62.6035 311.996 62.7739 309.293 62.7739C306.591 62.7739 304.656 62.4331 303.487 61.7516C302.319 61.0701 301.516 59.6584 301.077 57.5165ZM385.137 29.1118C388.642 32.6167 390.395 37.6307 390.395 44.1538C390.395 47.0746 390.018 49.7277 389.263 52.113C388.508 54.4983 387.413 56.5307 385.976 58.2102C384.54 59.8896 382.775 61.1796 380.682 62.0802C378.588 62.9808 376.178 63.4311 373.452 63.4311C370.725 63.4311 368.327 62.9686 366.258 62.0437C364.189 61.1188 362.436 59.8166 361 58.1371C359.563 56.4577 358.48 54.4253 357.75 52.04C357.019 49.6547 356.654 47.026 356.654 44.1538C356.654 41.2331 357.019 38.5922 357.75 36.2312C358.48 33.8702 359.551 31.8378 360.963 30.134C362.375 28.4302 364.128 27.1159 366.221 26.191C368.315 25.2661 370.725 24.8036 373.452 24.8036C378.272 24.8036 382.167 26.2397 385.137 29.1118ZM373.525 33.3469C372.453 33.3469 371.589 33.6025 370.932 34.1136C370.275 34.6248 369.751 35.3185 369.362 36.1947C368.972 37.0709 368.705 38.081 368.558 39.225C368.412 40.369 368.339 41.5982 368.339 42.9125C368.339 44.9571 368.4 46.7217 368.522 48.2064C368.644 49.6912 368.887 50.9325 369.252 51.9305C369.617 52.9284 370.129 53.6708 370.786 54.1576C371.443 54.6444 372.307 54.8878 373.379 54.8878C375.521 54.8878 376.933 53.9507 377.614 52.0765C378.296 50.2023 378.637 47.5371 378.637 44.0808C378.637 40.5759 378.296 37.9107 377.614 36.0852C376.933 34.2597 375.569 33.3469 373.525 33.3469ZM394.777 31.1563C395.02 30.1827 395.483 29.0996 396.164 27.9069C396.846 26.7143 397.528 25.8502 398.209 25.3147C402.689 25.6555 405.805 27.8704 407.557 31.9595C409.407 27.5784 412.45 25.3878 416.686 25.3878C417.952 25.3878 419.559 25.5825 421.506 25.9719C421.506 27.481 421.251 29.27 420.739 31.3389C420.228 33.4078 419.534 35.1724 418.658 36.6328C417.83 36.3407 416.589 36.0973 414.934 35.9026C412.499 35.9026 410.503 37.1439 408.945 39.6266V62.3358C407.338 62.6279 405.452 62.7739 403.285 62.7739C401.118 62.7739 399.207 62.6279 397.552 62.3358V38.7504C397.552 35.0994 396.627 32.568 394.777 31.1563ZM453.932 47.8048L455.758 53.1353C456.732 56.3482 457.9 58.417 459.264 59.342C457.121 61.7273 454.565 62.9199 451.595 62.9199C449.989 62.9199 448.771 62.5427 447.944 61.7881C447.116 61.0336 446.386 59.7071 445.753 57.8086L443.562 51.5288C443.075 50.0198 442.515 49.0097 441.882 48.4985C441.249 47.9874 440.397 47.7318 439.326 47.7318C438.255 47.7318 437.5 47.7562 437.062 47.8048V62.3358C435.455 62.6279 433.605 62.7739 431.512 62.7739C429.418 62.7739 427.568 62.6279 425.961 62.3358V9.10434L426.472 8.5932H430.854C433.143 8.5932 434.749 9.10434 435.674 10.1266C436.6 11.1489 437.062 12.9257 437.062 15.4571V38.3853H438.231C439.107 38.3853 439.789 37.9472 440.275 37.0709L444.073 29.7689C445.436 26.9942 447.579 25.6068 450.5 25.6068C451.912 25.6068 454.03 25.6555 456.854 25.7529L457.292 26.337L451.668 37.217C450.695 39.0668 449.453 40.5029 447.944 41.5251C450.865 42.5961 452.861 44.6893 453.932 47.8048ZM461.235 59.8531C461.284 58.5874 461.613 57.2001 462.221 55.691C462.83 54.1819 463.548 52.9892 464.376 52.113C468.271 54.1576 471.655 55.1798 474.527 55.1798C475.89 55.1798 476.937 54.9486 477.668 54.4861C478.398 54.0237 478.763 53.403 478.763 52.6241C478.763 51.1637 477.643 50.0685 475.404 49.3383L471.387 47.8048C465.301 45.5656 462.258 41.9146 462.258 36.8519C462.258 33.1522 463.536 30.2192 466.092 28.053C468.648 25.8867 472.093 24.8036 476.426 24.8036C478.568 24.8036 480.93 25.1078 483.51 25.7163C486.091 26.3248 488.208 27.0429 489.864 27.8704C489.961 29.2335 489.693 30.7304 489.061 32.3611C488.428 33.9919 487.649 35.1481 486.723 35.8296C482.634 33.9798 479.226 33.0548 476.499 33.0548C475.525 33.0548 474.783 33.2739 474.272 33.712C473.76 34.1501 473.505 34.71 473.505 35.3915C473.505 36.5598 474.43 37.4847 476.28 38.1662L480.808 39.7727C487.283 42.0606 490.521 45.9793 490.521 51.5288C490.521 55.1798 489.182 58.0763 486.504 60.2182C483.827 62.3601 480.005 63.4311 475.038 63.4311C470.072 63.4311 465.471 62.2384 461.235 59.8531ZM514.402 63.066C512.163 63.066 509.923 62.5548 507.684 61.5326V71.2442C507.684 73.7756 507.221 75.5524 506.296 76.5746C505.371 77.5969 503.74 78.1081 501.403 78.1081H497.021L496.51 77.5969V25.8989L497.021 25.3878H500.015C502.79 25.3878 504.86 26.5804 506.223 28.9657C508.998 26.191 512.382 24.8036 516.374 24.8036C518.419 24.8036 520.221 25.2539 521.779 26.1545C523.337 27.055 524.663 28.3329 525.759 29.988C526.854 31.6431 527.682 33.639 528.242 35.9756C528.802 38.3123 529.082 40.941 529.082 43.8618C529.082 46.7826 528.704 49.4356 527.95 51.8209C527.195 54.2062 526.161 56.2265 524.846 57.8816C523.531 59.5367 521.986 60.8145 520.208 61.7151C518.431 62.6157 516.496 63.066 514.402 63.066ZM513.015 33.9311C510.97 33.9311 509.193 34.9047 507.684 36.8519V52.9162C509.534 54.0359 511.116 54.5957 512.431 54.5957C515.741 54.5957 517.397 50.9204 517.397 43.5697C517.397 37.1439 515.936 33.9311 513.015 33.9311ZM566.766 57.0783C566.523 58.1006 566.06 59.1959 565.378 60.3642C564.697 61.5326 563.991 62.3845 563.261 62.9199C559.852 62.8226 557.223 61.5326 555.373 59.0499C552.208 61.9707 548.776 63.4311 545.076 63.4311C543.177 63.4311 541.521 63.1268 540.11 62.5183C538.698 61.9098 537.505 61.0944 536.531 60.0722C535.557 59.0499 534.827 57.8694 534.34 56.5307C533.853 55.192 533.61 53.7925 533.61 52.3321C533.61 50.2388 533.987 48.4012 534.742 46.8191C535.496 45.237 536.531 43.9226 537.846 42.876C539.16 41.8294 540.694 41.0383 542.447 40.5029C544.199 39.9674 546.074 39.6996 548.07 39.6996C549.19 39.6996 550.176 39.7118 551.028 39.7362C551.88 39.7605 552.622 39.797 553.255 39.8457V38.4583C553.255 35.3915 551.673 33.8581 548.508 33.8581C546.463 33.8581 542.885 34.6369 537.773 36.1947C536.312 34.4909 535.387 31.8378 534.997 28.2355C536.166 27.7974 537.468 27.3836 538.905 26.9942C540.341 26.6048 541.814 26.264 543.323 25.9719C544.832 25.6798 546.317 25.4486 547.778 25.2782C549.238 25.1078 550.553 25.0227 551.722 25.0227C553.426 25.0227 555.069 25.2661 556.651 25.7529C558.234 26.2397 559.621 26.982 560.814 27.98C562.007 28.9779 562.956 30.2679 563.662 31.85C564.368 33.4321 564.721 35.3184 564.721 37.509V52.3321C564.721 54.5713 565.403 56.1534 566.766 57.0783ZM544.711 51.6019C544.711 53.8898 546.025 55.0338 548.654 55.0338C550.017 55.0338 551.551 54.3279 553.255 52.9162V47.0746C552.281 47.026 551.466 46.9895 550.809 46.9651C550.151 46.9408 549.652 46.9286 549.312 46.9286C546.244 46.9286 544.711 48.4864 544.711 51.6019ZM590.72 42.0363V41.087C590.72 38.3609 590.428 36.3772 589.844 35.1359C589.26 33.8946 588.164 33.2739 586.558 33.2739C584.854 33.2739 583.661 34.1136 582.979 35.7931C582.297 37.4725 581.957 40.2595 581.957 44.1538C581.957 46.101 582.09 47.7318 582.358 49.0462C582.626 50.3605 583.016 51.4193 583.527 52.2225C584.038 53.0258 584.683 53.6099 585.462 53.975C586.241 54.3401 587.166 54.5227 588.237 54.5227C589.357 54.5227 590.599 54.2793 591.962 53.7925C593.325 53.3057 594.786 52.5268 596.344 51.4558C596.782 51.6992 597.232 52.0522 597.695 52.5146C598.157 52.9771 598.583 53.5004 598.973 54.0845C599.362 54.6687 599.703 55.2894 599.995 55.9465C600.288 56.6037 600.507 57.2244 600.653 57.8086C599.046 59.5123 596.952 60.8754 594.372 61.8977C591.792 62.9199 589.162 63.4311 586.485 63.4311C581.275 63.4311 577.283 61.7273 574.507 58.3197C571.732 54.9121 570.345 50.0685 570.345 43.7887C570.345 40.5759 570.795 37.7768 571.696 35.3915C572.596 33.0062 573.789 31.0346 575.274 29.4769C576.759 27.9191 578.463 26.7508 580.386 25.9719C582.31 25.193 584.318 24.8036 586.412 24.8036C588.554 24.8036 590.513 25.0957 592.291 25.6798C594.068 26.264 595.601 27.0916 596.892 28.1625C598.182 29.2335 599.18 30.5113 599.886 31.996C600.592 33.4808 600.945 35.1237 600.945 36.9249C600.945 38.9694 600.348 40.4055 599.156 41.2331C597.963 42.0606 596.49 42.4744 594.737 42.4744C593.277 42.4744 591.938 42.3284 590.72 42.0363ZM635.051 47.8048H615.989C616.087 49.9954 616.647 51.6992 617.669 52.9162C618.692 54.1332 620.371 54.7417 622.708 54.7417C623.877 54.7417 625.228 54.5713 626.761 54.2306C628.295 53.8898 630.06 53.33 632.056 52.5511C633.663 54.2062 634.661 56.4455 635.051 59.2689C631.156 62.0437 626.384 63.4311 620.736 63.4311C617.669 63.4311 615.101 62.9443 613.032 61.9707C610.962 60.9971 609.283 59.634 607.992 57.8816C606.702 56.1291 605.789 54.0602 605.254 51.6749C604.718 49.2896 604.45 46.6852 604.45 43.8618C604.45 41.1357 604.779 38.6165 605.436 36.3042C606.094 33.9919 607.092 31.9839 608.431 30.2801C609.769 28.5763 611.474 27.2376 613.543 26.264C615.612 25.2904 618.034 24.8036 620.809 24.8036C623.146 24.8036 625.252 25.193 627.127 25.9719C629.001 26.7508 630.596 27.8218 631.91 29.1848C633.225 30.5478 634.235 32.1786 634.941 34.0771C635.647 35.9756 636 38.0445 636 40.2838C636 43.2533 635.683 45.7603 635.051 47.8048ZM615.916 39.9187H625.556V39.1155C625.556 37.3143 625.155 35.8296 624.351 34.6613C623.548 33.493 622.343 32.9088 620.736 32.9088C619.178 32.9088 618.022 33.4564 617.267 34.5517C616.513 35.647 616.062 37.436 615.916 39.9187Z"/>
</g></symbol>
</svg>
