<svg id="icon" width="24" height="24" viewBox="0 0 86 86" fill="currentColor" xmlns="http://www.w3.org/2000/svg">
<title>AI as Workspace</title>
<path d="M0 51.259V74.4191L20.0616 86L40.1223 74.4191V51.259L20.0616 39.678L0 51.259ZM31.5711 69.4829L20.0616 76.1268L8.55117 69.4829V56.1951L20.0616 49.5503L31.5711 56.1951V69.4829Z"/>
<path d="M63.0346 11.58L42.973 0L22.9114 11.5809V34.7419L42.973 46.3229L63.0346 34.7419V11.58ZM54.4834 29.8049L42.973 36.4497L31.4635 29.8049V16.5171L42.973 9.87225L54.4834 16.5171V29.8049Z"/>
<path d="M65.8853 39.678L45.8228 51.259V74.4191L65.8843 86L85.9459 74.4191V51.259L65.8853 39.678Z"/>
</svg>
